<?xml version="1.0" encoding="utf-8"?>
<!-- Generator: Adobe Illustrator 16.0.0, SVG Export Plug-In . SVG Version: 6.00 Build 0)  -->
<!DOCTYPE svg PUBLIC "-//W3C//DTD SVG 1.1//EN" "http://www.w3.org/Graphics/SVG/1.1/DTD/svg11.dtd">
<svg version="1.1" id="Capa_1" xmlns="http://www.w3.org/2000/svg" xmlns:xlink="http://www.w3.org/1999/xlink" x="0px" y="0px"
	 width="999.455px" height="999.066px" viewBox="0 0 999.455 999.066" enable-background="new 0 0 999.455 999.066"
	 xml:space="preserve">
<g>
	<g>
		<path fill-rule="evenodd" clip-rule="evenodd" fill="#CC0033" d="M501.114,76.129C555.165,16.133,617.861,0,703.683,0
			c163.428,0,295.76,137.676,295.76,305.689c0.639,95.289-25.247,208.345-88.199,311.704
			c-64.845,106.432-288.117,321.244-410.797,381.673c-112.444-56.386-338.73-269.62-412.244-383.192
			C22.522,514.437-0.644,399.462,0.014,304.179C0.014,136.188,132.312,0,295.727,0C381.563,0,447.062,16.133,501.114,76.129z"/>
	</g>
	<g>
		<polygon fill-rule="evenodd" clip-rule="evenodd" fill="#FFFFFF" points="194.032,695.803 194.032,673.203 217.086,673.203 
			217.086,658.213 194.032,658.213 194.032,646.527 222.968,646.527 222.968,631.518 172.956,631.518 172.956,695.803 		"/>
		<polygon fill-rule="evenodd" clip-rule="evenodd" fill="#FFFFFF" points="283.395,695.803 283.395,680.795 250.764,680.795 
			250.764,670.712 277.291,670.712 277.291,655.716 250.764,655.716 250.764,646.527 282.138,646.527 282.138,631.518 
			229.69,631.518 229.69,695.803 		"/>
		<polygon fill-rule="evenodd" clip-rule="evenodd" fill="#FFFFFF" points="356.167,672.056 380.108,631.518 356.861,631.518 
			345.773,653.304 334.709,631.518 311.144,631.518 335.071,672.396 335.071,695.803 356.167,695.803 		"/>
		<path fill-rule="evenodd" clip-rule="evenodd" fill="#FFFFFF" d="M445.221,673.927h-13.31l6.51-23.035L445.221,673.927z
			 M425.47,695.803l2.406-8.475h21.016l2.494,8.475h20.993l-23.058-64.285h-21.445l-23.052,64.285H425.47z"/>
		<polygon fill-rule="evenodd" clip-rule="evenodd" fill="#FFFFFF" points="527.222,695.803 527.222,680.795 498.265,680.795 
			498.265,631.518 477.189,631.518 477.189,695.803 		"/>
		<polygon fill-rule="evenodd" clip-rule="evenodd" fill="#FFFFFF" points="587.417,695.803 587.417,680.795 554.843,680.795 
			554.843,670.712 581.366,670.712 581.366,655.716 554.843,655.716 554.843,646.527 586.199,646.527 586.199,631.518 
			533.773,631.518 533.773,695.803 		"/>
		<path fill-rule="evenodd" clip-rule="evenodd" fill="#FFFFFF" d="M656.89,660.446h-28.844v13.921h9.261
			c-1.052,4.474-6.49,7.421-10.795,7.421c-10.62,0-13.472-8.303-13.472-17.41c0-11.353,3.923-18.847,12.225-18.847
			c5.443,0,9.298,2.857,10.805,8.128h19.999c-2.587-15.81-14.988-23.855-30.434-23.855c-20.826,0-33.702,14.113-33.702,34.673
			c0,22.398,14.736,33.023,31.181,33.023c10.119,0,15.923-3.745,19.375-7.858l0.83,6.354h13.571V660.446z"/>
		<path fill-rule="evenodd" clip-rule="evenodd" fill="#FFFFFF" d="M686.483,646.527h9.816c4.927,0,8.514,2.134,8.514,6.681
			c0,4.474-3.499,6.079-10.017,6.079h-8.313V646.527z M692.922,673.396c9.845,0,11.259,2.76,11.259,11.175
			c0,5.685,0.523,9.808,1.079,11.231h21.358v-1.976c-2.518,0-2.275-2.855-2.275-11.227c0-12.956-4.091-14.589-10.886-17.054
			c7.509-2.048,10.823-8.324,10.823-15.734c0-12.494-7.071-18.295-28.489-18.295h-30.386v64.285h21.077v-22.406H692.922z"/>
		<rect x="733.272" y="631.518" fill-rule="evenodd" clip-rule="evenodd" fill="#FFFFFF" width="21.08" height="64.285"/>
		<path fill-rule="evenodd" clip-rule="evenodd" fill="#FFFFFF" d="M799.358,673.927h-13.316l6.522-23.035L799.358,673.927z
			 M779.606,695.803l2.42-8.475h21.004l2.504,8.475h20.965l-23.036-64.285h-21.437l-23.054,64.285H779.606z"/>
	</g>
	<g>
		<path fill="#FFFFFF" d="M850.484,425.68c2.157,7.023,3.723,10.243,4.708,19.039c0.94,8.655,0.583,12.566,0.583,21.292
			c0,11.468-4.612,24.711-16.094,24.711c-6.342,0-9.627-8.563-9.627-14.907c-2.693,1.777-4.583,3.162-7.825,3.162
			c-5.775,0-7.779-4.382-8.75-11.824c0.213-15.6,5.083-15.021,4.265-23.37c-2.873-21.186-20.422-38.508-33.664-43.91l0.841,15.004
			l-10.323,7.279l8.619,6.881l23.568,155.578l22.762,25.435h-85.702l-12.381-37.396l-13.038,37.396h-88.372l21.412-25.435
			l27.184-155.578l8.159-6.881l-9.897-7.279l-0.857-15.004l-31.571,55.282c0.934,2.396,1.471,6.431,1.471,9.15
			c0,11.468-9.299,20.743-20.729,20.743c-11.475,0-21.347-12.223-15.472-25.16l-59.4-66.942l-4.119,21.931l-8.227,4.692
			l51.511,71.265h-50.894l44.186,105.734l16.079,14.737h-72.305l-27.385-60.618l-31.513,60.618h-80.343l18.767-14.737
			l54.887-105.734h-46.853l46.829-71.265l-9.41-4.101l-2.941-22.522l-50.582,62.209c0.216,1.235,2.008,7.85,2.008,9.15
			c0,11.468-9.281,20.743-20.74,20.743c-11.44,0-20.755-8.149-20.755-19.605c0-1.592,0.173-4.07,0.526-5.555l-45.701-56.259
			l4.239,24.095l-8.136,1.508v7.861l7.972-0.028l17.66,148.294l22.833,25.946h-81.704l-13.482-37.105l-11.762,37.105h-80.471
			l20.493-25.946l17.068-148.294l8.3,0.028v-7.861l-7.716-1.508l2.352-24.095c0,0-25.897,18.888-29.317,46.923
			c-0.792,8.377,4.071,7.768,4.313,23.379c-0.968,7.438-2.985,11.821-8.785,11.821c-3.226,0-5.114-1.403-7.802-3.176
			c0,6.356-3.282,14.919-9.656,14.919c-11.467,0-16.098-13.237-16.098-24.718c0-8.717-0.361-12.619,0.615-21.284
			c0.977-8.776,2.259-15.92,4.394-22.936c9.623-28.477,19.26-40.86,38.118-67.013l-3.708-10.995l43.614-32.829l2.938-10.516h9.369
			l0.08-11.274c-20.592-6.952-43.771-25.862-54.797-44.823c-2.236,0.962-4.649,1.492-7.162,1.492
			c-11.094,0-20.093-10.185-20.093-22.746c0-10.368,6.125-19.118,14.483-21.875c-0.088-1.698-0.126-3.414-0.126-5.161
			c0-51.484,39.981-93.216,89.266-93.216c49.307,0,89.289,41.731,89.289,93.216c0,2.882-0.123,5.772-0.394,8.593
			c5.034,4.139,8.334,10.856,8.334,18.443c0,12.562-9.015,22.746-20.1,22.746l-1.594-0.069
			c-9.096,16.216-32.537,37.524-53.918,43.856v10.818h8.651l2.343,11.433l37.258,31.912l-4.195,10.995l52.287,61.572l49.982-67.037
			l-3.787-15.147l53.496-29.747l0.075-21.114c-26.621-6.438-48.919-24.076-61.215-48.055h-27.703
			c-1.477-7.28-2.418-14.816-2.418-22.531c0-61.038,49.751-108.455,110.06-111.458c1.707-0.123,3.457,0,5.207,0
			c60.385,1.746,103.302,49.942,103.45,111.458c0.017,5.494-1.148,17.278-1.899,22.566h-25.873
			c-10.003,21.155-28.634,41.688-56.792,48.04l0.016,21.094l49.546,31.089l-3.947,13.806l55.489,67.037l44.766-69.091l-3.25-11.706
			l36.492-27.387l-4.115-12.052h17.922l-0.102-8.966c-23.014-4.663-42.876-18.113-55.908-37.388
			c-2.207,0.907-4.562,1.424-7.015,1.424c-11.086,0-20.079-10.174-20.079-22.756c0-9.074,4.694-16.927,11.493-20.576
			c-0.477-3.865-0.717-7.819-0.717-11.803c0-51.484,39.974-93.216,89.292-93.216c49.287,0,89.297,41.731,89.297,93.216
			c0,3.895-0.259,7.715-0.688,11.47c7.147,3.481,12.146,11.541,12.146,20.909c0,12.582-8.972,22.756-20.082,22.756
			c-2.656,0-5.229-0.577-7.538-1.674c-12.296,18.322-33.652,32.236-55.117,37.638l0.086,8.966h19.908l-4.436,12.052l34.461,27.387
			l-3.527,11.706C819.997,374.869,842.625,394.598,850.484,425.68z"/>
	</g>
</g>
</svg>
